<?xml version="1.0" standalone="no"?>
<!DOCTYPE svg PUBLIC "-//W3C//DTD SVG 20010904//EN"
 "http://www.w3.org/TR/2001/REC-SVG-20010904/DTD/svg10.dtd">
<svg version="1.0" xmlns="http://www.w3.org/2000/svg"
 width="360.000000pt" height="422.000000pt" viewBox="0 0 360.000000 422.000000"
 preserveAspectRatio="xMidYMid meet">

<g transform="translate(0.000000,422.000000) scale(0.100000,-0.100000)"
fill="#000000" stroke="none">
<path d="M1102 3735 c-401 -104 -607 -162 -636 -179 -51 -30 -91 -85 -106
-146 -7 -30 -10 -162 -8 -395 3 -345 3 -351 26 -394 26 -47 62 -85 103 -107
14 -7 539 -158 1165 -334 626 -177 1142 -326 1146 -333 4 -7 8 -58 8 -114 l0
-101 -67 -60 c-146 -129 -977 -832 -983 -832 -7 0 -930 781 -1012 857 -34 30
-38 39 -38 81 0 26 4 53 9 61 7 11 103 -13 511 -128 277 -78 509 -140 517
-137 10 4 13 42 13 175 0 152 -2 171 -17 180 -10 5 -108 34 -218 64 -110 31
-352 99 -538 152 -232 65 -355 95 -391 95 -108 0 -203 -77 -227 -184 -7 -32
-10 -125 -7 -246 3 -181 5 -199 26 -243 21 -40 109 -120 625 -560 331 -281
622 -522 646 -534 56 -29 139 -30 196 -4 22 10 166 126 320 257 155 132 428
364 607 517 271 231 330 285 350 325 22 45 23 56 23 292 0 233 -1 247 -22 286
-28 52 -79 97 -134 118 -35 12 -1720 489 -2169 613 -52 14 -101 31 -107 36
-10 7 -13 65 -13 228 0 218 0 219 23 229 12 5 248 68 524 139 l502 130 503
-130 c277 -71 513 -134 526 -139 22 -9 22 -13 22 -184 0 -127 -3 -176 -12
-184 -9 -7 -68 6 -198 42 -102 29 -326 92 -497 140 -172 49 -319 86 -328 82
-13 -4 -15 -32 -15 -175 0 -93 4 -172 8 -175 24 -15 1119 -316 1149 -316 87 0
173 54 216 134 22 40 22 48 22 411 l0 370 -31 55 c-53 93 -50 92 -719 265
-405 105 -616 155 -650 154 -30 0 -285 -61 -643 -154z"/>
</g>
</svg>
